<svg xmlns="http://www.w3.org/2000/svg" viewBox="0 0 188.9 99.29"><defs><style>.cls-1{font-size:21px;font-family:Impact;}</style></defs><title>mountainLogo</title><g id="Layer_2" data-name="Layer 2"><path d="M145.54,45.11a2.26,2.26,0,0,0-1.67.45c-1.11.79-1.25,2.48-1.23,5.22,0,4.74.52,6.76.07,6.91s-1.34-1.85-3.87-5.68c-.3-.44-1.36-2-2.39-3.42-2.88-3.83-7.12-8-8.14-7.35-.25.16-.24.77-.22,2a12,12,0,0,0,.39,2.81,23.78,23.78,0,0,0,2.1,4.87,54.62,54.62,0,0,1,2,5.16c2.46,6.41,4.48,9.53,4.13,9.74s-2.41-3.09-7.23-8.38c-1.95-2.14-3.77-4-4.9-5.1-3.17-3.17-2.48-2.26-4.84-4.64s-3.26-3.54-5.1-4.2c-.53-.19-2.78-1-3.8,0-.16.15-.43.49-.71,3.23-.08.74-.16,1.48-.18,2.22-.12,3.23-.34,4.2-.44,6.78a71.94,71.94,0,0,0,.2,7.26c.33,5.9.84,8.62.19,8.8-.3.09-.52-.45-2.58-3-1.46-1.77-1.75-2-2.65-3.22s-.85-1.37-1.74-2.61a44.64,44.64,0,0,0-3.09-3.71,48.19,48.19,0,0,1-3.23-3.68c-1-1.4-.84-1.46-1.77-2.61a31.11,31.11,0,0,1-2.52-3,9.06,9.06,0,0,1-1.07-2.1,11.58,11.58,0,0,1-.41-3.52,6.45,6.45,0,0,1,.29-2.92,2.57,2.57,0,0,1,.87-1.3c1.15-.78,2.57.3,3.22-.36.24-.23.17-.49.07-1.92-.15-2,0-.51-.23-4.21-.09-1.21-.11-1.43-.13-2s0-1.13,0-2.23,0-1.25,0-2.17,0-1.62,0-1.87c0-.57,0-1,0-1.31,0-1.74,0-1.61,0-1.88,0-1.23.06-2.18.64-2.77s1.11-.5,2.39-.57c1.69-.08,3.55,0,3.55,0a1.21,1.21,0,0,0,.9-.13c.65-.5.27-2,.13-2.52-.24-.93-.27-1.44-2.9-4.84-2-2.52-2.82-3.08-3.16-3.29a6.49,6.49,0,0,0-3-1,6.31,6.31,0,0,0-3,.58,8.52,8.52,0,0,0-2.09,1.47c-1,.89-1.58,1.47-4.23,4.21-.65.67-1.19,1.22-2,2-.37.35-.79.73-1.53,1.39A30.78,30.78,0,0,0,77.8,19.8c-.79.94-.72.94-1.36,1.7-1,1.16-1.59,1.8-2.77,3-3.7,3.87-4.36,4.83-4.46,6.19a5.33,5.33,0,0,0,.07,1.23c.17,1.32.63,2.15,2.35,5,1.58,2.62,1.56,2.53,1.83,3.08A18.69,18.69,0,0,0,74.53,42c.31.48.6.86,1.06,1.45.73.92,1.37,1.71,2.52,3,1.43,1.53,1.59,1.52,2.76,2.76,1.81,1.91,1.74,2.25,4,4.79,1.18,1.34,1.27,1.32,2.8,3s2.51,2.93,2.81,3.29C94.15,64.76,106.27,76.9,106,77.2S91.14,65.5,87.35,62.49c-.91-.72.15.15-2.9-1.93-1-.68-1.94-1.54-2.66-1.21a.87.87,0,0,0-.3.22c-1.14,1.2-.67,4.23-.57,4.81.4,2.45,1,3.3.69,3.5-.55.38-3.49-2.7-5.73-5-3-3.2-4-4.52-5.27-4.31-.93.16-1.5,1.06-2.52,2.67a7.84,7.84,0,0,0-1.55,4.11,8.22,8.22,0,0,0,.88,3.53,18,18,0,0,0,1.5,2.76c1.68,2.84,2.66,4.49,2.46,4.64s-1-.88-3.14-2.66c-.71-.58-.68-.52-1.4-1.11A27.15,27.15,0,0,1,64,69.9a16.8,16.8,0,0,1-1.69-2.23c-3.27-4.84-4.73-6.36-5.81-8.9a18.23,18.23,0,0,1-1-3,16.72,16.72,0,0,1-.29-1.65c-.2-1.51-.3-2.27,0-2.9a2.58,2.58,0,0,1,1.4-1.31c1.71-.58,3.17,1.47,5.44,1.48a12.32,12.32,0,0,1,1.58,0c.72.06,1,.18,1.39,0,.15-.09.36-.29.55-1a5.56,5.56,0,0,0,.07-2.29,23.27,23.27,0,0,0-1.77-4.5c-1.43-3.16-2-6.85-2.9-7a6.16,6.16,0,0,0-.88-.09c-.26,0-.34,0-.77,0h-.9c-.56,0-.85,0-1.17,0-1.77,0-2.87,1-5.14,2.56-3.69,2.53-3.61,1.91-5.8,3.67s-4.2,3.94-3.9,4.34,1.75-.86,4.53-1.14c1.18-.12,3.06-.12,3.14.29.14.65-4.37,1.77-9.72,4a89.46,89.46,0,0,0-11.81,6.29A123.24,123.24,0,0,0,15.3,65.25c-2,1.51-2.51,2-5.08,4-.84.63-8.81,6.59-9.19,6.14s8.17-8.29,9.48-9.48c0,0,13.62-12.39,35.18-28.44,2.4-1.78,4.8-3.53,4.8-3.53,3.48-2.54,3.06-2.18,3.61-2.62.25-.19.85-.68,1.73-1.24.56-.35,1-.61,1.35-.78a5.07,5.07,0,0,1,1.64-.57,8,8,0,0,1,1.76,0c1.26.08,1.83.2,2.53-.15a1.75,1.75,0,0,0,.33-.21A13.91,13.91,0,0,0,65.16,27c1.44-1.32,1.22-1.05,1.87-1.68s.77-.78,1.61-1.61c1.54-1.53,2-1.73,3.42-3a28,28,0,0,0,2.19-2.38c2.34-2.71,4.53-4.81,8.33-8.46,1.58-1.52,2.46-2.36,3.8-3.54,5.66-5,7.27-5.09,8.07-5,1.21.08,2.31.87,4.45,2.46a41.12,41.12,0,0,1,5.61,5.09c5.2,5.36,4.62,5.85,8.13,9.23a57.07,57.07,0,0,1,4.78,4.71c2,2.38,1.45,2.39,3.42,4.58s2.94,2.37,5.35,4.84,1.82,2.7,3.48,4.26c2.31,2.15,7.05,5.08,11,3.74,2.37-.82,2.73-2.53,4.78-2.45,1.05,0,1.87.53,4.4,2.69,2.87,2.44,4.91,4.43,5.08,4.6,4.54,4.42,3.67,3.49,6.48,6.29s4.18,4.14,5.23,5.22c3,3.14,3.53,3.81,5.9,6.1,1.55,1.49,1.8,1.65,3.58,3.39s3,3,4.29,4.35c4.79,5,7.65,7.58,7.55,7.68a74.39,74.39,0,0,1-7.09-5.74c-.28-.24.39.34-3.88-2.86-1.34-1-2.18-1.65-3.29-1.53a2.64,2.64,0,0,0-1.84,1.06c-.22.35-.26.68-.29,1.84,0,2.2.07,2.78-.12,2.84s-.74-1-2.1-3.1c-.71-1.09-1.33-2-2.13-3.09-.64-.9-.79-1.08-1.55-2.13-1.25-1.72-2.06-2.92-2.32-3.29-.66-.94-1.6-2.09-7.32-7.49-5.43-5.11-5.47-4.91-6.52-6.06-.79-.86-1.8-1.51-2.58-2.39A2.5,2.5,0,0,0,145.54,45.11Z"/></g><g id="Layer_3" data-name="Layer 3"><text class="cls-1" transform="translate(74.9 96.16)">Y E T I</text></g></svg>